<?xml version="1.0" encoding="UTF-8" standalone="no"?>
<!DOCTYPE svg PUBLIC "-//W3C//DTD SVG 1.1//EN" "http://www.w3.org/Graphics/SVG/1.1/DTD/svg11.dtd">
<svg width="100%" height="100%" viewBox="0 0 116 130" version="1.1" xmlns="http://www.w3.org/2000/svg" xmlns:xlink="http://www.w3.org/1999/xlink" xml:space="preserve" xmlns:serif="http://www.serif.com/" style="fill-rule:evenodd;clip-rule:evenodd;stroke-linejoin:round;stroke-miterlimit:2;">
    <g transform="matrix(1,0,0,1,0,0.01)">
        <g transform="matrix(0.194272,0,0,0.194272,-116.845,-89.4335)">
            <path d="M1081.12,603.28C858.55,412.64 858.55,412.64 635.98,603.28C635.86,603.38 635.74,603.49 635.61,603.59C613.93,622.16 601.45,649.28 601.45,677.83L601.45,909.99C601.45,938.54 613.92,965.66 635.61,984.23C635.73,984.33 635.85,984.44 635.98,984.54C858.55,1175.18 858.55,1175.18 1081.12,984.54C1192.41,889.22 1198.55,841.56 1198.55,793.9C1198.55,746.26 1192.4,698.6 1081.12,603.28ZM709.8,613.34C709.8,581.11 746.44,560.72 776.3,576.33L941.13,662.48C939.46,705.89 919.63,755.22 873.27,755.22L792.25,755.22C762.57,755.22 734.39,763.32 709.8,777.33L709.8,613.34ZM1113.73,825.79L777.17,1011.06C747.3,1027.5 709.8,1007.16 709.8,974.51L709.8,925.01C709.8,879.41 749.1,837.89 792.25,837.89L873.27,837.89C957,837.89 1007.25,774.96 1023.24,705.39L1112.86,752.23C1143.28,768.12 1143.77,809.25 1113.73,825.79Z" style="fill:rgb(239,218,185);fill-rule:nonzero;"/>
        </g>
    </g>
</svg>
